# xmcd CD database file
#
# Track frame offsets:
#	150
#	19176
#	39390
#	65065
#	93073
#	117998
#	138625
#	165404
#	178023
#	209657
#	227344
#	248424
#
# Disc length: 3627 seconds
#
# Revision: 0
# Processed by: cddbd v1.5.2PL0 Copyright (c) Steve Scherf et al.
# Submitted via: CDex 1.50
#
DISCID=9a0e290c
DTITLE=Rasthof Dachau - Prison Poems
DYEAR=2006
DGENRE=Dark Ambient
TTITLE0=The Sleeping Rose
TTITLE1=A Prison Poem
TTITLE2=Catholic Youth
TTITLE3=Sixty-Six Days
TTITLE4=Requiem To Barry
TTITLE5=The Cages Of Long Kesh
TTITLE6=Weeping Winds
TTITLE7=Lest We Remember The Truth
TTITLE8=Modern Times
TTITLE9=Aplace To Rest
TTITLE10=Tourture Mill
TTITLE11=The Rhythm Of Time
EXTD=YEAR: 2006
EXTT0=
EXTT1=
EXTT2=
EXTT3=
EXTT4=
EXTT5=
EXTT6=
EXTT7=
EXTT8=
EXTT9=
EXTT10=
EXTT11=
PLAYORDER=
